<mxfile host="app.diagrams.net" modified="2024-01-21T20:53:24.987Z" agent="Mozilla/5.0 (Windows NT 10.0; Win64; x64) AppleWebKit/537.36 (KHTML, like Gecko) Chrome/118.0.0.0 YaBrowser/23.11.0.0 Safari/537.36" etag="S4QTHsqHyR-lsNG0IsqA" version="22.1.21" type="device">
  <diagram name="Страница — 1" id="oO36PXJ_uNi7z1hvm-Xt">
    <mxGraphModel dx="1317" dy="748" grid="1" gridSize="10" guides="1" tooltips="1" connect="1" arrows="1" fold="1" page="1" pageScale="1" pageWidth="827" pageHeight="1169" math="0" shadow="0">
      <root>
        <mxCell id="0" />
        <mxCell id="1" parent="0" />
        <mxCell id="qW0dQa9fp7xqUKSfQ48W-1" value="Начало" style="rounded=1;whiteSpace=wrap;html=1;arcSize=50;" vertex="1" parent="1">
          <mxGeometry x="355" y="100" width="140" height="60" as="geometry" />
        </mxCell>
        <mxCell id="qW0dQa9fp7xqUKSfQ48W-3" value="x = Lab_dll.Input_user(Input_x_lab8);" style="shape=process;whiteSpace=wrap;html=1;backgroundOutline=1;" vertex="1" parent="1">
          <mxGeometry x="290.5" y="170" width="269" height="60" as="geometry" />
        </mxCell>
        <mxCell id="qW0dQa9fp7xqUKSfQ48W-4" value="" style="endArrow=none;html=1;rounded=0;entryX=0.5;entryY=1;entryDx=0;entryDy=0;exitX=0.5;exitY=0;exitDx=0;exitDy=0;" edge="1" parent="1" source="qW0dQa9fp7xqUKSfQ48W-3" target="qW0dQa9fp7xqUKSfQ48W-1">
          <mxGeometry width="50" height="50" relative="1" as="geometry">
            <mxPoint x="390" y="350" as="sourcePoint" />
            <mxPoint x="440" y="300" as="targetPoint" />
          </mxGeometry>
        </mxCell>
        <mxCell id="qW0dQa9fp7xqUKSfQ48W-12" value="" style="endArrow=none;html=1;rounded=0;entryX=0.5;entryY=1;entryDx=0;entryDy=0;exitX=0.5;exitY=0;exitDx=0;exitDy=0;" edge="1" parent="1" source="qW0dQa9fp7xqUKSfQ48W-13" target="qW0dQa9fp7xqUKSfQ48W-3">
          <mxGeometry width="50" height="50" relative="1" as="geometry">
            <mxPoint x="390" y="240" as="sourcePoint" />
            <mxPoint x="414" y="220" as="targetPoint" />
          </mxGeometry>
        </mxCell>
        <mxCell id="qW0dQa9fp7xqUKSfQ48W-13" value="eps = Lab_dll.Input_user(Input_eps_lab8);" style="shape=process;whiteSpace=wrap;html=1;backgroundOutline=1;" vertex="1" parent="1">
          <mxGeometry x="280" y="240" width="290" height="60" as="geometry" />
        </mxCell>
        <mxCell id="qW0dQa9fp7xqUKSfQ48W-14" value="" style="endArrow=none;html=1;rounded=0;entryX=0.5;entryY=1;entryDx=0;entryDy=0;exitX=0.5;exitY=0;exitDx=0;exitDy=0;" edge="1" parent="1" source="qW0dQa9fp7xqUKSfQ48W-15" target="qW0dQa9fp7xqUKSfQ48W-13">
          <mxGeometry width="50" height="50" relative="1" as="geometry">
            <mxPoint x="380" y="390" as="sourcePoint" />
            <mxPoint x="404" y="370" as="targetPoint" />
          </mxGeometry>
        </mxCell>
        <mxCell id="qW0dQa9fp7xqUKSfQ48W-15" value="MaxIter = Lab_dll.Input_user(Input_MaxIter_lab8);" style="shape=process;whiteSpace=wrap;html=1;backgroundOutline=1;" vertex="1" parent="1">
          <mxGeometry x="255" y="310" width="340" height="60" as="geometry" />
        </mxCell>
        <mxCell id="qW0dQa9fp7xqUKSfQ48W-16" value="" style="endArrow=none;html=1;rounded=0;entryX=0.5;entryY=1;entryDx=0;entryDy=0;exitX=0.5;exitY=0;exitDx=0;exitDy=0;" edge="1" parent="1" source="qW0dQa9fp7xqUKSfQ48W-17" target="qW0dQa9fp7xqUKSfQ48W-15">
          <mxGeometry width="50" height="50" relative="1" as="geometry">
            <mxPoint x="546" y="420" as="sourcePoint" />
            <mxPoint x="570" y="400" as="targetPoint" />
          </mxGeometry>
        </mxCell>
        <mxCell id="qW0dQa9fp7xqUKSfQ48W-17" value="Lab_dll.Lab8_Result(x, eps, MaxIter, Lab8_dataGridView);" style="shape=process;whiteSpace=wrap;html=1;backgroundOutline=1;" vertex="1" parent="1">
          <mxGeometry x="225" y="380" width="400" height="60" as="geometry" />
        </mxCell>
        <mxCell id="qW0dQa9fp7xqUKSfQ48W-19" value="" style="endArrow=none;html=1;rounded=0;exitX=0.5;exitY=1;exitDx=0;exitDy=0;entryX=0.5;entryY=0;entryDx=0;entryDy=0;" edge="1" parent="1" source="qW0dQa9fp7xqUKSfQ48W-17" target="qW0dQa9fp7xqUKSfQ48W-20">
          <mxGeometry width="50" height="50" relative="1" as="geometry">
            <mxPoint x="390" y="460" as="sourcePoint" />
            <mxPoint x="440" y="410" as="targetPoint" />
          </mxGeometry>
        </mxCell>
        <mxCell id="qW0dQa9fp7xqUKSfQ48W-20" value="Конец" style="rounded=1;whiteSpace=wrap;html=1;arcSize=50;" vertex="1" parent="1">
          <mxGeometry x="355" y="450" width="140" height="60" as="geometry" />
        </mxCell>
      </root>
    </mxGraphModel>
  </diagram>
</mxfile>
